<svg viewBox="0 0 101 40" fill="none" xmlns="http://www.w3.org/2000/svg">
<path fill-rule="evenodd" clip-rule="evenodd" d="M64.4558 0.547791C67.4472 0.547791 69.8722 3.00102 69.8722 6.02724V33.9725C69.8722 36.9987 67.4472 39.4519 64.4558 39.4519C61.4643 39.4519 59.0393 36.9987 59.0393 33.9725V6.02724C59.0393 3.00102 61.4643 0.547791 64.4558 0.547791Z" fill="white"/>
<path fill-rule="evenodd" clip-rule="evenodd" d="M49.2893 0.547791C52.2807 0.547791 54.7057 3.00102 54.7057 6.02724V33.9725C54.7057 36.9987 52.2807 39.4519 49.2893 39.4519C46.2978 39.4519 43.8728 36.9987 43.8728 33.9725V6.02724C43.8728 3.00102 46.2978 0.547791 49.2893 0.547791Z" fill="white"/>
<path fill-rule="evenodd" clip-rule="evenodd" d="M79.6218 13.1508C82.6132 13.1508 85.0382 15.6041 85.0382 18.6303V21.9179C85.0382 24.9442 82.6132 27.3974 79.6218 27.3974C76.6304 27.3974 74.2053 24.9442 74.2053 21.9179V18.6303C74.2053 15.6041 76.6304 13.1508 79.6218 13.1508Z" fill="white"/>
<path fill-rule="evenodd" clip-rule="evenodd" d="M94.788 7.6712C97.7795 7.6712 100.204 10.1244 100.204 13.1507V26.8493C100.204 29.8755 97.7795 32.3287 94.788 32.3287C91.7966 32.3287 89.3716 29.8755 89.3716 26.8493V13.1507C89.3716 10.1244 91.7966 7.6712 94.788 7.6712Z" fill="white"/>
<path d="M19.7899 29.4999C25.047 29.4999 29.3088 25.1886 29.3088 19.8703C29.3088 14.552 25.047 10.2407 19.7899 10.2407C14.5327 10.2407 10.2709 14.552 10.2709 19.8703C10.2709 25.1886 14.5327 29.4999 19.7899 29.4999ZM19.7701 40C8.85136 40 0 31.0457 0 20C0 8.9543 8.85136 0 19.7701 0C30.6888 0 39.5401 8.9543 39.5401 20C39.5401 31.0457 30.6888 40 19.7701 40Z" fill="white"/>
</svg>
